<svg xmlns="http://www.w3.org/2000/svg" width="20" height="15" viewBox="0 0 20 15">
  <path id="Icon_awesome-bars" data-name="Icon awesome-bars" d="M.714,6.974H19.286A.669.669,0,0,0,20,6.362V4.831a.669.669,0,0,0-.714-.612H.714A.669.669,0,0,0,0,4.831V6.362A.669.669,0,0,0,.714,6.974Zm0,6.122H19.286A.669.669,0,0,0,20,12.484V10.953a.669.669,0,0,0-.714-.612H.714A.669.669,0,0,0,0,10.953v1.531A.669.669,0,0,0,.714,13.1Zm0,6.122H19.286A.669.669,0,0,0,20,18.607V17.076a.669.669,0,0,0-.714-.612H.714A.669.669,0,0,0,0,17.076v1.531A.669.669,0,0,0,.714,19.219Z" transform="translate(0 -4.219)" fill="#fff"/>
</svg>
