<svg xmlns="http://www.w3.org/2000/svg" width="30" height="30" viewBox="0 0 30 30">
  <path id="Icon_awesome-music" data-name="Icon awesome-music" d="M30,1.875A1.874,1.874,0,0,0,27.562.088L8.813,5.625A1.874,1.874,0,0,0,7.5,7.412V22.729a8.106,8.106,0,0,0-1.875-.23C2.518,22.5,0,24.178,0,26.249S2.518,30,5.625,30s5.625-1.679,5.625-3.75V12.557l15-4.4V18.979a8.106,8.106,0,0,0-1.875-.23c-3.107,0-5.625,1.679-5.625,3.75s2.518,3.75,5.625,3.75S30,24.571,30,22.5V1.875Z" transform="translate(0 0.001)" fill="#fff"/>
</svg>
